# xmcd
# 
# Track frame offsets:
#     150
#     21557
#     33985
#     55930
#     71829
#     88785
#     114246
#     128281
#     145488
#     167613
#     186664
#     205140
#     236998
# 
# Disc length: 3440
# 
# Revision: 2
# Processed by: cddbd v1.5.2PL0 Copyright (c) Steve Scherf et al.
# Submitted via: fre:ac v1.0.17
# 
DISCID=bf0d6e0d
DTITLE=Greg Allman - low country blues [SHM-CD]
DYEAR=2011
DGENRE=Blues
TTITLE0=Floating Bridge
TTITLE1=Little By Little
TTITLE2=Devil Got My Woman
TTITLE3=I Can't Be Satisfied
TTITLE4=Blind Man
TTITLE5=Just Another Rider
TTITLE6=Please Accept My Love
TTITLE7=I Believe I'll Go Back Home
TTITLE8=Tears, Tears, Tears
TTITLE9=My Love Is Your Love
TTITLE10=Checking On My Baby
TTITLE11=Rolling Stone
TTITLE12=Reconsider Baby
EXTD=
EXTT0=
EXTT1=
EXTT2=
EXTT3=
EXTT4=
EXTT5=
EXTT6=
EXTT7=
EXTT8=
EXTT9=
EXTT10=
EXTT11=
EXTT12=
PLAYORDER=
